<mxfile host="app.diagrams.net" modified="2024-02-15T17:45:47.965Z" agent="Mozilla/5.0 (X11; Linux x86_64; rv:122.0) Gecko/20100101 Firefox/122.0" etag="5JRFsn--3JGV7ZY1yxqM" version="23.1.2" type="github">
  <diagram name="Page-1" id="-vBvK6VZyVo-eEwJGYQc">
    <mxGraphModel dx="1674" dy="800" grid="1" gridSize="10" guides="1" tooltips="1" connect="1" arrows="1" fold="1" page="1" pageScale="1" pageWidth="850" pageHeight="1100" math="0" shadow="0">
      <root>
        <mxCell id="0" />
        <mxCell id="1" parent="0" />
        <mxCell id="i81Mh-GNAX37pwzCof6u-17" value="" style="rounded=0;whiteSpace=wrap;html=1;movable=1;resizable=1;rotatable=1;deletable=1;editable=1;locked=0;connectable=1;fillColor=#deddda;strokeColor=#0e8088;" parent="1" vertex="1">
          <mxGeometry y="360" width="850" height="280" as="geometry" />
        </mxCell>
        <mxCell id="i81Mh-GNAX37pwzCof6u-9" value="" style="rounded=0;whiteSpace=wrap;html=1;movable=1;resizable=1;rotatable=1;deletable=1;editable=1;locked=0;connectable=1;fillColor=#deddda;strokeColor=#0e8088;" parent="1" vertex="1">
          <mxGeometry width="850" height="320" as="geometry" />
        </mxCell>
        <mxCell id="i81Mh-GNAX37pwzCof6u-6" value="" style="edgeStyle=orthogonalEdgeStyle;rounded=0;orthogonalLoop=1;jettySize=auto;html=1;fontStyle=1;fontSize=14;" parent="1" source="i81Mh-GNAX37pwzCof6u-1" target="i81Mh-GNAX37pwzCof6u-5" edge="1">
          <mxGeometry relative="1" as="geometry" />
        </mxCell>
        <mxCell id="i81Mh-GNAX37pwzCof6u-1" value="Show tickets" style="rounded=0;whiteSpace=wrap;html=1;fontStyle=1;fontSize=14;" parent="1" vertex="1">
          <mxGeometry x="240" y="80" width="120" height="60" as="geometry" />
        </mxCell>
        <mxCell id="i81Mh-GNAX37pwzCof6u-8" value="" style="edgeStyle=orthogonalEdgeStyle;rounded=0;orthogonalLoop=1;jettySize=auto;html=1;fontStyle=1;fontSize=14;" parent="1" source="i81Mh-GNAX37pwzCof6u-2" target="i81Mh-GNAX37pwzCof6u-7" edge="1">
          <mxGeometry relative="1" as="geometry" />
        </mxCell>
        <mxCell id="i81Mh-GNAX37pwzCof6u-2" value="Open new ticket" style="rounded=0;whiteSpace=wrap;html=1;fontStyle=1;fontSize=14;" parent="1" vertex="1">
          <mxGeometry x="40" y="80" width="120" height="60" as="geometry" />
        </mxCell>
        <mxCell id="i81Mh-GNAX37pwzCof6u-3" value="Edit Ticket&lt;br&gt;Button" style="rounded=0;whiteSpace=wrap;html=1;fontStyle=1;fontSize=14;" parent="1" vertex="1">
          <mxGeometry x="620" y="200" width="120" height="60" as="geometry" />
        </mxCell>
        <mxCell id="i81Mh-GNAX37pwzCof6u-4" value="Delete Ticket&lt;br&gt;Button" style="rounded=0;whiteSpace=wrap;html=1;fontStyle=1;fontSize=14;" parent="1" vertex="1">
          <mxGeometry x="440" y="200" width="120" height="60" as="geometry" />
        </mxCell>
        <mxCell id="i81Mh-GNAX37pwzCof6u-5" value="Filter Tickets serach" style="rounded=0;whiteSpace=wrap;html=1;fontStyle=1;fontSize=14;" parent="1" vertex="1">
          <mxGeometry x="240" y="200" width="120" height="60" as="geometry" />
        </mxCell>
        <mxCell id="i81Mh-GNAX37pwzCof6u-7" value="Fill Form" style="whiteSpace=wrap;html=1;rounded=0;fontStyle=1;fontSize=14;" parent="1" vertex="1">
          <mxGeometry x="40" y="200" width="120" height="60" as="geometry" />
        </mxCell>
        <mxCell id="i81Mh-GNAX37pwzCof6u-10" value="&lt;b style=&quot;font-size: 23px;&quot;&gt;Front End&lt;br style=&quot;font-size: 23px;&quot;&gt;&lt;/b&gt;" style="text;html=1;strokeColor=none;fillColor=none;align=center;verticalAlign=middle;whiteSpace=wrap;rounded=0;fontSize=23;" parent="1" vertex="1">
          <mxGeometry x="320" y="20" width="190" height="30" as="geometry" />
        </mxCell>
        <mxCell id="i81Mh-GNAX37pwzCof6u-11" value="&lt;b&gt;Retrieving tickets(GET)&lt;br&gt;&lt;/b&gt;" style="rounded=0;whiteSpace=wrap;html=1;" parent="1" vertex="1">
          <mxGeometry x="40" y="440" width="160" height="60" as="geometry" />
        </mxCell>
        <mxCell id="i81Mh-GNAX37pwzCof6u-12" value="&lt;b&gt;Create new tickets(POST)&lt;br&gt;&lt;/b&gt;" style="rounded=0;whiteSpace=wrap;html=1;" parent="1" vertex="1">
          <mxGeometry x="250" y="440" width="160" height="60" as="geometry" />
        </mxCell>
        <mxCell id="i81Mh-GNAX37pwzCof6u-13" value="&lt;b&gt;Filtering Tickets(GET with query parameters)&lt;br&gt;&lt;/b&gt;" style="rounded=0;whiteSpace=wrap;html=1;" parent="1" vertex="1">
          <mxGeometry x="440" y="440" width="270" height="60" as="geometry" />
        </mxCell>
        <mxCell id="i81Mh-GNAX37pwzCof6u-14" value="&lt;b&gt;Update ticket (PATCH/PUT)&lt;br&gt;&lt;/b&gt;" style="rounded=0;whiteSpace=wrap;html=1;" parent="1" vertex="1">
          <mxGeometry x="470" y="540" width="190" height="60" as="geometry" />
        </mxCell>
        <mxCell id="i81Mh-GNAX37pwzCof6u-18" value="&lt;b&gt;Back End&lt;br&gt;&lt;/b&gt;" style="text;html=1;strokeColor=none;fillColor=none;align=center;verticalAlign=middle;whiteSpace=wrap;rounded=0;fontSize=23;" parent="1" vertex="1">
          <mxGeometry x="320" y="380" width="190" height="30" as="geometry" />
        </mxCell>
        <mxCell id="i81Mh-GNAX37pwzCof6u-19" value="&lt;font style=&quot;font-size: 20px;&quot;&gt;&lt;b&gt;Data Base&lt;/b&gt;&lt;br&gt;&lt;/font&gt;" style="strokeWidth=2;html=1;shape=mxgraph.flowchart.database;whiteSpace=wrap;rounded=0;strokeColor=#0e8088;align=center;verticalAlign=middle;fontFamily=Helvetica;fontSize=12;fontColor=default;fillColor=#deddda;" parent="1" vertex="1">
          <mxGeometry x="40" y="680" width="160" height="220" as="geometry" />
        </mxCell>
        <mxCell id="i81Mh-GNAX37pwzCof6u-20" value="&lt;div style=&quot;font-size: 17px;&quot;&gt;&lt;font style=&quot;font-size: 17px;&quot;&gt;&lt;b&gt;Amazon S3&lt;br&gt;&lt;/b&gt;&lt;/font&gt;&lt;/div&gt;&lt;div style=&quot;font-size: 15px;&quot;&gt;&lt;font style=&quot;font-size: 15px;&quot;&gt;&lt;b&gt;&lt;font style=&quot;font-size: 15px;&quot;&gt;for multi media&lt;/font&gt;&lt;br&gt;&lt;/b&gt;&lt;/font&gt;&lt;/div&gt;" style="ellipse;shape=cloud;whiteSpace=wrap;html=1;rounded=0;strokeColor=#0e8088;align=center;verticalAlign=middle;fontFamily=Helvetica;fontSize=12;fontColor=default;fillColor=#deddda;" parent="1" vertex="1">
          <mxGeometry x="475" y="710" width="245" height="180" as="geometry" />
        </mxCell>
        <mxCell id="i81Mh-GNAX37pwzCof6u-21" value="REACT" style="verticalLabelPosition=bottom;verticalAlign=top;html=1;shape=mxgraph.basic.sun;rounded=0;strokeColor=#0e8088;align=center;fontFamily=Helvetica;fontSize=12;fontColor=default;fillColor=#deddda;" parent="1" vertex="1">
          <mxGeometry x="750" width="100" height="100" as="geometry" />
        </mxCell>
        <mxCell id="i81Mh-GNAX37pwzCof6u-23" value="GO" style="verticalLabelPosition=bottom;verticalAlign=top;html=1;shape=mxgraph.basic.sun;rounded=0;strokeColor=#0e8088;align=center;fontFamily=Helvetica;fontSize=12;fontColor=default;fillColor=#deddda;" parent="1" vertex="1">
          <mxGeometry x="750" y="360" width="100" height="100" as="geometry" />
        </mxCell>
        <mxCell id="i81Mh-GNAX37pwzCof6u-26" value="PostreSQL" style="verticalLabelPosition=bottom;verticalAlign=top;html=1;shape=mxgraph.basic.sun;rounded=0;strokeColor=#0e8088;align=center;fontFamily=Helvetica;fontSize=12;fontColor=default;fillColor=#deddda;" parent="1" vertex="1">
          <mxGeometry x="85" y="800" width="75" height="70" as="geometry" />
        </mxCell>
        <mxCell id="i81Mh-GNAX37pwzCof6u-27" value="&lt;font style=&quot;font-size: 20px;&quot;&gt;&lt;b&gt;Data Base&lt;/b&gt;&lt;br&gt;&lt;/font&gt;" style="strokeWidth=2;html=1;shape=mxgraph.flowchart.database;whiteSpace=wrap;rounded=0;strokeColor=#0e8088;align=center;verticalAlign=middle;fontFamily=Helvetica;fontSize=12;fontColor=default;fillColor=#deddda;" parent="1" vertex="1">
          <mxGeometry x="240" y="680" width="160" height="220" as="geometry" />
        </mxCell>
        <mxCell id="i81Mh-GNAX37pwzCof6u-28" value="ElasticSearch" style="verticalLabelPosition=bottom;verticalAlign=top;html=1;shape=mxgraph.basic.sun;rounded=0;strokeColor=#0e8088;align=center;fontFamily=Helvetica;fontSize=12;fontColor=default;fillColor=#deddda;" parent="1" vertex="1">
          <mxGeometry x="285" y="800" width="75" height="70" as="geometry" />
        </mxCell>
        <mxCell id="i81Mh-GNAX37pwzCof6u-29" value="&lt;b&gt;Delete ticket (DELETE)&lt;br&gt;&lt;/b&gt;" style="rounded=0;whiteSpace=wrap;html=1;" parent="1" vertex="1">
          <mxGeometry x="262.5" y="540" width="177.5" height="60" as="geometry" />
        </mxCell>
        <mxCell id="i81Mh-GNAX37pwzCof6u-30" value="&lt;b&gt;Handle file download/upload&lt;br&gt;&lt;/b&gt;" style="rounded=0;whiteSpace=wrap;html=1;" parent="1" vertex="1">
          <mxGeometry x="40" y="540" width="190" height="60" as="geometry" />
        </mxCell>
      </root>
    </mxGraphModel>
  </diagram>
</mxfile>
